<svg id="Layer_3" enable-background="new 0 0 64 64" height="512" viewBox="0 0 64 64" width="512" xmlns="http://www.w3.org/2000/svg"><g><path d="m45 8h17v54h-60v-54h15" fill="#59ac98"/><path d="m31 6h14v13h-14z" fill="#243242"/><path d="m31 15h14v4h-14z" fill="#a8b0bc"/><path d="m36 6h4v9h-4z" fill="#c1c8d1"/><path d="m55 11h4v8h-4z" fill="#243242"/><path d="m48 11h4v8h-4z" fill="#f2c351"/><path d="m35 6v-4h6v4" fill="#e7e4dd"/><g><path d="m30.999 3h1.999v3h-1.999z" fill="#d5cec2"/></g><g><path d="m42.999 3h1.999v3h-1.999z" fill="#d5cec2"/></g><g><path d="m30.999 11h2.999v2h-2.999z" fill="#4d5d7a"/></g><g><path d="m41.999 11h2.999v2h-2.999z" fill="#4d5d7a"/></g><path d="m17 6h10v10h-10z" fill="#cbc3b6"/><g><path d="m20.999 9h1.999v7h-1.999z" fill="#e7e4dd"/></g><path d="m18 6v-4h8v4" fill="#e7e4dd"/><g><path d="m20.999 2h1.999v4h-1.999z" fill="#d5cec2"/></g><g><path d="m5.499 12.999c-.827 0-1.5-.673-1.5-1.5s.673-1.5 1.5-1.5c.826 0 1.499.673 1.499 1.5s-.673 1.5-1.499 1.5zm0-1.999c-.276 0-.5.224-.5.5 0 .275.224.5.5.5.275 0 .499-.224.499-.5s-.224-.5-.499-.5z" fill="#243242"/></g><g><path d="m17.5 21.999c-.827 0-1.5-.673-1.5-1.5s.673-1.5 1.5-1.5c.826 0 1.499.673 1.499 1.5s-.673 1.5-1.499 1.5zm0-1.999c-.276 0-.5.224-.5.5 0 .275.224.5.5.5.275 0 .499-.224.499-.5s-.224-.5-.499-.5z" fill="#243242"/></g><g><path d="m21.5 21.999c-.827 0-1.5-.673-1.5-1.5s.673-1.5 1.5-1.5c.826 0 1.499.673 1.499 1.5s-.673 1.5-1.499 1.5zm0-1.999c-.276 0-.5.224-.5.5 0 .275.224.5.5.5.275 0 .499-.224.499-.5s-.224-.5-.499-.5z" fill="#243242"/></g><g><path d="m49.5 25.999c-.827 0-1.5-.673-1.5-1.5s.673-1.5 1.5-1.5c.826 0 1.499.673 1.499 1.5s-.673 1.5-1.499 1.5zm0-1.999c-.276 0-.5.224-.5.5 0 .275.224.5.5.5.275 0 .499-.224.499-.5s-.224-.5-.499-.5z" fill="#243242"/></g><g><path d="m45.5 25.999c-.827 0-1.5-.673-1.5-1.5s.673-1.5 1.5-1.5c.826 0 1.499.673 1.499 1.5s-.673 1.5-1.499 1.5zm0-1.999c-.276 0-.5.224-.5.5 0 .275.224.5.5.5.275 0 .499-.224.499-.5s-.224-.5-.499-.5z" fill="#243242"/></g><g><path d="m31.5 23.999c-.827 0-1.5-.673-1.5-1.5s.673-1.5 1.5-1.5c.826 0 1.499.673 1.499 1.5s-.673 1.5-1.499 1.5zm0-1.999c-.276 0-.5.224-.5.5 0 .275.224.5.5.5.275 0 .499-.224.499-.5s-.224-.5-.499-.5z" fill="#243242"/></g><g><path d="m31.5 27.999c-.827 0-1.5-.673-1.5-1.5s.673-1.5 1.5-1.5c.826 0 1.499.673 1.499 1.5s-.673 1.5-1.499 1.5zm0-1.999c-.276 0-.5.224-.5.5 0 .275.224.5.5.5.275 0 .499-.224.499-.5s-.224-.5-.499-.5z" fill="#243242"/></g><g><path d="m17.5 25.999c-.827 0-1.5-.673-1.5-1.5s.673-1.5 1.5-1.5c.826 0 1.499.673 1.499 1.5s-.673 1.5-1.499 1.5zm0-1.999c-.276 0-.5.224-.5.5 0 .275.224.5.5.5.275 0 .499-.224.499-.5s-.224-.5-.499-.5z" fill="#243242"/></g><g><path d="m21.5 25.999c-.827 0-1.5-.673-1.5-1.5s.673-1.5 1.5-1.5c.826 0 1.499.673 1.499 1.5s-.673 1.5-1.499 1.5zm0-1.999c-.276 0-.5.224-.5.5 0 .275.224.5.5.5.275 0 .499-.224.499-.5s-.224-.5-.499-.5z" fill="#243242"/></g><g><path d="m5.499 59.998c-.827 0-1.5-.673-1.5-1.499 0-.827.673-1.5 1.5-1.5.826 0 1.499.673 1.499 1.5 0 .826-.673 1.499-1.499 1.499zm0-1.999c-.276 0-.5.224-.5.5 0 .275.224.499.5.499.275 0 .499-.224.499-.499 0-.276-.224-.5-.499-.5z" fill="#243242"/></g><g><path d="m58.499 59.998c-.827 0-1.5-.673-1.5-1.499 0-.827.673-1.5 1.5-1.5.826 0 1.499.673 1.499 1.5 0 .826-.673 1.499-1.499 1.499zm0-1.999c-.276 0-.5.224-.5.5 0 .275.224.499.5.499.275 0 .499-.224.499-.499 0-.276-.224-.5-.499-.5z" fill="#243242"/></g><g><path d="m56.5 52.998c-.827 0-1.5-.673-1.5-1.499 0-.827.673-1.5 1.5-1.5.826 0 1.499.673 1.499 1.5 0 .826-.673 1.499-1.499 1.499zm0-1.999c-.276 0-.5.224-.5.5 0 .275.224.499.5.499.275 0 .499-.224.499-.499 0-.276-.224-.5-.499-.5z" fill="#243242"/></g><path d="m17 28h3v24h-3z" fill="#e7e4dd"/><path d="m11 20h3v24h-3z" fill="#4d5d7a"/><path d="m5 20h3v24h-3z" fill="#4d5d7a"/><path d="m42.5 42.5h3v18h-3z" fill="#4d5d7a" transform="matrix(0 -1 1 0 -7.5 95.5)"/><g fill="#e7e4dd"><path d="m42.5 48.5h3v18h-3z" transform="matrix(0 -1 1 0 -13.5 101.5)"/><path d="m25 24h3v28h-3z"/><path d="m49 28h4v4h-4z"/></g><path d="m42 28h4v4h-4z" fill="#cbc3b6"/><path d="m35 28h4v4h-4z" fill="#e7e4dd"/><path d="m39 39h10v8h-10z" fill="#243242"/><path d="m39 40-4 1v4l4 1" fill="#cbc3b6"/><g><path d="m38.999 41.999h6.999v1.999h-6.999z" fill="#e7e4dd"/></g><path d="m5 47h8v8h-8z" fill="#cbc3b6"/><g><path d="m9.998 52.998h-1.999c-.553 0-1-.447-1-1v-1.999c0-.553.447-1 1-1h1.999c.553 0 1 .447 1 1v1.999c0 .553-.447 1-1 1z" fill="#e7e4dd"/></g><g><path d="m16 53.999h7.999v1.999h-7.999z" fill="#4d5d7a"/></g><g><path d="m16 56.999h7.999v1.999h-7.999z" fill="#4d5d7a"/></g><g><path d="m25 56.999h1.999v1.999h-1.999z" fill="#e39854"/></g><g><path d="m28 56.999h1.999v1.999h-1.999z" fill="#f2c351"/></g><g><path d="m31 56.999h1.999v1.999h-1.999z" fill="#e47c6e"/></g><g><path d="m57.999 38.999h1.999v1.999h-1.999z" fill="#e39854"/></g><g><path d="m57.999 41.999h1.999v1.999h-1.999z" fill="#f2c351"/></g><g><path d="m57.999 44.999h1.999v1.999h-1.999z" fill="#e47c6e"/></g><g><path d="m54.999 25h4.999v2h-4.999z" fill="#4d5d7a"/></g><g><path d="m54.999 28h4.999v2h-4.999z" fill="#4d5d7a"/></g><g><path d="m54.999 31h4.999v2h-4.999z" fill="#4d5d7a"/></g><g><path d="m12.999 11h1.999v6h-1.999z" fill="#e7e4dd"/></g><g><path d="m10 11h1.999v6h-1.999z" fill="#e7e4dd"/></g><g><path d="m6.999 15h1.999v2h-1.999z" fill="#e7e4dd"/></g><circle cx="33" cy="36" fill="#f2c351" r="2"/><g><path d="m38.999 35.999h1.999v2.999h-1.999z" fill="#4d5d7a"/></g><g><path d="m41.999 35.999h1.999v2.999h-1.999z" fill="#4d5d7a"/></g><g><path d="m44.999 35.999h1.999v2.999h-1.999z" fill="#4d5d7a"/></g><path d="m52 38h4v3h-4z" fill="#f2c351"/><path d="m52 44h4v3h-4z" fill="#243242"/><g><path d="m62 7h-16.001v-1c0-.553-.447-1-1-1v-2h-1.999v2h-1.001v-3c0-.553-.447-1-1-1h-5.999c-.553 0-1 .447-1 1v3h-1.001v-2h-1.999v2c-.553 0-1 .447-1 1v1h-2.001v-1c0-.553-.447-1-1-1v-3c0-.553-.447-1-1-1h-7.999c-.553 0-1 .447-1 1v3c-.553 0-1 .447-1 1v1h-14.001c-.552 0-1 .447-1 1v54c0 .552.448 1 1 1h60.001c.552 0 1-.448 1-1v-54c0-.553-.448-1-1-1zm-30 8.999h11.999v2h-11.999zm0-4.999v-4h3v7h-3v-1h1.999v-2zm4.999 3v-7h2.001v7zm7 0h-3v-7h3v4h-1.999v2h1.999zm-7.999-11h3.999v2h-3.999zm-15 6v6h-3v-8h7.999v8h-3v-6zm3.999-4h-2l.001-2h2v2zm-5.999-2h2v2h-2zm42 57.999h-58.001v-51.999h13.001v7c0 .553.447 1 1 1h9.999c.553 0 1-.447 1-1v-7h2.001v10c0 .553.447 1 1 1h13.999c.553 0 1-.447 1-1v-10h15.001z"/><path d="m55 19.999h3.999c.553 0 1-.447 1-1v-8c0-.553-.447-1-1-1h-3.999c-.553 0-1 .447-1 1v8c0 .553.447 1 1 1zm1-7.999h1.999v6h-1.999z"/><path d="m48 19.999h3.999c.553 0 1-.447 1-1v-8c0-.553-.447-1-1-1h-3.999c-.553 0-1 .447-1 1v8c0 .553.447 1 1 1zm1-7.999h1.999v6h-1.999z"/><path d="m5.5 12.999c.826 0 1.499-.673 1.499-1.5s-.673-1.5-1.499-1.5c-.827.001-1.5.673-1.5 1.501 0 .826.673 1.499 1.5 1.499z"/><path d="m17.5 22c.826 0 1.499-.673 1.499-1.5s-.673-1.5-1.499-1.5c-.827 0-1.5.673-1.5 1.5s.673 1.5 1.5 1.5z"/><path d="m21.5 22c.826 0 1.499-.673 1.499-1.5s-.673-1.5-1.499-1.5c-.827 0-1.5.673-1.5 1.5s.673 1.5 1.5 1.5z"/><path d="m49.5 26c.826 0 1.499-.673 1.499-1.5s-.673-1.5-1.499-1.5c-.827 0-1.5.673-1.5 1.5s.673 1.5 1.5 1.5z"/><path d="m45.5 23c-.827 0-1.5.673-1.5 1.5s.673 1.5 1.5 1.5c.826 0 1.499-.673 1.499-1.5s-.673-1.5-1.499-1.5z"/><path d="m31.5 24c.826 0 1.499-.673 1.499-1.5s-.673-1.5-1.499-1.5c-.827 0-1.5.673-1.5 1.5s.673 1.5 1.5 1.5z"/><path d="m31.5 28c.826 0 1.499-.673 1.499-1.5s-.673-1.5-1.499-1.5c-.827 0-1.5.673-1.5 1.5s.673 1.5 1.5 1.5z"/><path d="m17.5 26c.826 0 1.499-.673 1.499-1.5s-.673-1.5-1.499-1.5c-.827 0-1.5.673-1.5 1.5s.673 1.5 1.5 1.5z"/><path d="m21.5 26c.826 0 1.499-.673 1.499-1.5s-.673-1.5-1.499-1.5c-.827 0-1.5.673-1.5 1.5s.673 1.5 1.5 1.5z"/><path d="m5.5 57c-.827 0-1.5.673-1.5 1.5 0 .826.673 1.499 1.5 1.499.826 0 1.499-.673 1.499-1.499 0-.827-.673-1.5-1.499-1.5z"/><path d="m58.5 57c-.827 0-1.5.673-1.5 1.5 0 .826.673 1.499 1.5 1.499.826 0 1.499-.673 1.499-1.499 0-.827-.673-1.5-1.499-1.5z"/><path d="m57.999 51.5c0-.827-.673-1.5-1.499-1.5-.827 0-1.5.673-1.5 1.5 0 .826.673 1.499 1.5 1.499.826 0 1.499-.673 1.499-1.499z"/><path d="m17 52.998h2.999c.553 0 1-.447 1-1v-23.998c0-.553-.447-1-1-1h-2.999c-.553 0-1 .447-1 1v23.999c0 .552.447.999 1 .999zm1-23.998h.999v21.999h-.999z"/><path d="m13.999 19h-2.999c-.553 0-1 .447-1 1v23.999c0 .553.447 1 1 1h2.999c.553 0 1-.447 1-1v-23.999c0-.553-.447-1-1-1zm-1 23.999h-.999v-21.999h.999z"/><path d="m5 44.999h2.999c.553 0 1-.447 1-1v-23.999c0-.553-.447-1-1-1h-2.999c-.553 0-1 .447-1 1v23.999c0 .553.447 1 1 1zm1-23.999h.999v21.999h-.999z"/><path d="m53 49-18-.001c0-.001 0 0-.001 0-.552 0-.999.447-.999.999l-.001 3c-.001.266.104.52.292.707.188.188.442.293.707.293l18.001.002c.266 0 .521-.105.708-.293s.293-.442.293-.707v-3c0-.553-.448-1-1-1zm-1 2.999h-16.001v-1h16.001z"/><path d="m53 55-18.001-.001c-.266 0-.521.104-.708.292s-.292.442-.292.708v2.999c0 .553.447 1 .999 1l18.001.002c.266 0 .521-.105.708-.293s.293-.442.293-.707v-3c0-.553-.448-1-1-1zm-1 2.999h-16.001v-1h16.001z"/><path d="m28.999 51.998v-27.998c0-.553-.447-1-1-1h-2.999c-.553 0-1 .447-1 1v27.998c0 .553.447 1 1 1h2.999c.553 0 1-.447 1-1zm-2-1h-.999v-25.998h.999z"/><path d="m49 27c-.553 0-1 .447-1 1v4c0 .553.447 1 1 1h3.999c.553 0 1-.447 1-1v-4c0-.553-.447-1-1-1zm2.999 3.999h-1.999v-2h1.999z"/><path d="m42 32.999h3.999c.553 0 1-.447 1-1v-4c0-.553-.447-1-1-1h-3.999c-.553 0-1 .447-1 1v4c0 .553.447 1 1 1zm1-3.999h1.999v2h-1.999z"/><path d="m35 32.999h3.999c.553 0 1-.447 1-1v-4c0-.553-.447-1-1-1h-3.999c-.553 0-1 .447-1 1v4c0 .553.447 1 1 1zm1-3.999h1.999v2h-1.999z"/><path d="m12.999 45.999h-7.999c-.553 0-1 .447-1 1v7.999c0 .553.447 1 1 1h7.999c.553 0 1-.447 1-1v-7.999c0-.553-.447-1-1-1zm-1 7.999h-5.999v-5.999h5.999z"/><path d="m8 52.998h1.999c.553 0 1-.447 1-1v-1.999c0-.553-.447-1-1-1h-1.999c-.553 0-1 .447-1 1v1.999c0 .553.447 1 1 1z"/><path d="m16 54h7.999v1.999h-7.999z"/><path d="m16 57h7.999v1.999h-7.999z"/><path d="m25 56.999h1.999v1.999h-1.999z"/><path d="m28 56.999h1.999v1.999h-1.999z"/><path d="m31 56.999h1.999v1.999h-1.999z"/><path d="m58 38.999h1.999v1.999h-1.999z"/><path d="m58 42h1.999v1.999h-1.999z"/><path d="m58 45h1.999v1.999h-1.999z"/><path d="m55 25h4.999v2h-4.999z"/><path d="m55 28h4.999v2h-4.999z"/><path d="m55 31h4.999v2h-4.999z"/><path d="m13 11h1.999v6h-1.999z"/><path d="m10 11h1.999v6h-1.999z"/><path d="m7 15h1.999v2h-1.999z"/><path d="m35.999 35.999c0-1.654-1.346-3-2.999-3-1.654 0-3 1.346-3 3 0 1.653 1.346 2.999 3 2.999 1.653 0 2.999-1.346 2.999-2.999zm-2.999.999c-.552 0-1-.448-1-.999 0-.552.448-1 1-1 .551 0 .999.448.999 1 0 .551-.448.999-.999.999z"/><path d="m39 35.999v2c-.553 0-1 .447-1 1v.219l-3.243.811c-.445.111-.757.511-.757.97v3.999c0 .459.312.859.757.971l3.243.811v.219c0 .553.447 1 1 1h9.999c.553 0 1-.447 1-1v-7.999-.001-2.999h-1.999v2h-1.001v-2h-1.999v2h-1.001v-2h-1.999v2h-1.001v-2h-1.999zm-3 8.219v-2.438l2-.5v3.438zm11.999 1.78h-7.999v-2h5.999v-1.999h-5.999v-2h7.999z"/><path d="m52 41.998h3.999c.553 0 1-.447 1-1v-2.999c0-.553-.447-1-1-1h-3.999c-.553 0-1 .447-1 1v2.999c0 .553.447 1 1 1zm1-2.999h1.999v.999h-1.999z"/><path d="m51 46.998c0 .553.447 1 1 1h3.999c.553 0 1-.447 1-1v-2.999c0-.553-.447-1-1-1h-3.999c-.553 0-1 .447-1 1zm2-1.999h1.999v.999h-1.999z"/></g></g></svg>